# This file uses centimeters as units for non-parametric coordinates.

mtllib Deco.mtl
g default
v -0.434069 0.433071 0.020563
v 0.447820 0.433071 0.020563
v -0.434069 0.433071 -0.003059
v 0.447820 0.433071 -0.003059
v 0.447820 0.169291 0.020563
v -0.434069 0.169291 0.020563
v -0.434069 0.169291 -0.003059
v 0.447820 0.169291 -0.003059
vt 0.000000 1.000000
vt 0.097700 1.000000
vt 0.000000 1.001000
vt 0.097700 1.001000
vt -0.097700 1.000000
vt -0.097700 1.001000
vt 0.196300 0.970700
vt 0.197300 0.970700
vt 0.196300 1.000000
vt 0.197300 1.000000
vt 0.000000 0.970700
vt 0.097700 0.970700
vt 0.098600 0.970700
vt 0.098600 1.000000
vt 1.010000 0.350000
vt 2.010000 0.350000
vt 1.010000 0.650000
vt 2.010000 0.650000
vt 0.000000 1.000000
vt 0.000000 1.001000
vn -0.000100 1.000000 0.000000
vn -0.000100 1.000000 0.000000
vn -0.000100 1.000000 0.000000
vn -0.000100 1.000000 0.000000
vn -0.000100 1.000000 0.000000
vn -0.000100 1.000000 0.000000
vn -0.000100 -1.000000 -0.000000
vn -0.000100 -1.000000 -0.000000
vn -0.000100 -1.000000 -0.000000
vn -0.000100 -1.000000 -0.000000
vn -0.000100 -1.000000 -0.000000
vn -0.000100 -1.000000 -0.000000
vn -1.000000 0.000000 -0.000100
vn -1.000000 0.000000 -0.000100
vn -1.000000 0.000000 -0.000100
vn -1.000000 0.000000 -0.000100
vn -1.000000 0.000000 -0.000100
vn -1.000000 0.000000 -0.000100
vn 0.000000 0.000000 1.000000
vn 0.000000 0.000000 1.000000
vn 0.000000 0.000000 1.000000
vn 0.000000 0.000000 1.000000
vn 0.000000 0.000000 1.000000
vn 0.000000 0.000000 1.000000
vn 1.000000 0.000000 0.000000
vn 1.000000 0.000000 0.000000
vn 1.000000 0.000000 0.000000
vn 1.000000 0.000000 0.000000
vn 1.000000 0.000000 0.000000
vn 1.000000 0.000000 0.000000
vn 0.000000 0.000000 -1.000000
vn 0.000000 0.000000 -1.000000
vn 0.000000 0.000000 -1.000000
vn 0.000000 0.000000 -1.000000
vn 0.000000 0.000000 -1.000000
vn 0.000000 0.000000 -1.000000
s off
g Furniture_evZoJPQoTGyWMCnTPclZog
usemtl lambert2SG
f 1/1/1 2/2/2 3/3/3
f 3/3/4 2/2/5 4/4/6
f 5/5/7 6/19/8 7/20/9
f 5/5/10 7/20/11 8/6/12
f 7/7/13 6/8/14 3/9/15
f 3/9/16 6/8/17 1/10/18
f 6/11/19 5/12/20 1/1/21
f 1/1/22 5/12/23 2/2/24
f 5/12/25 8/13/26 2/2/27
f 2/2/28 8/13/29 4/14/30
f 8/15/31 7/16/32 4/17/33
f 4/17/34 7/16/35 3/18/36
